<mxfile host="app.diagrams.net" modified="2022-10-31T06:12:06.673Z" agent="5.0 (Macintosh; Intel Mac OS X 10_15_7) AppleWebKit/537.36 (KHTML, like Gecko) Chrome/106.0.0.0 Safari/537.36" etag="GxErlqvWydG7FfnojdsX" version="20.5.1" type="github">
  <diagram id="wBQlwIpfEwQ50Xts0F6V" name="第 1 页">
    <mxGraphModel dx="2454" dy="1161" grid="1" gridSize="10" guides="1" tooltips="1" connect="1" arrows="1" fold="1" page="1" pageScale="1" pageWidth="850" pageHeight="1100" math="0" shadow="0">
      <root>
        <mxCell id="0" />
        <mxCell id="1" parent="0" />
        <mxCell id="qIHvddNcrJCs_uBIurdM-1" value="neo4j&lt;br&gt;&lt;br&gt;imgproc-dev" style="shape=cylinder3;whiteSpace=wrap;html=1;boundedLbl=1;backgroundOutline=1;size=15;" vertex="1" parent="1">
          <mxGeometry x="30" y="650" width="100" height="80" as="geometry" />
        </mxCell>
        <mxCell id="qIHvddNcrJCs_uBIurdM-2" value="neo4j&lt;br&gt;&lt;br&gt;hcp-prod" style="shape=cylinder3;whiteSpace=wrap;html=1;boundedLbl=1;backgroundOutline=1;size=15;" vertex="1" parent="1">
          <mxGeometry x="500" y="650" width="100" height="80" as="geometry" />
        </mxCell>
        <mxCell id="qIHvddNcrJCs_uBIurdM-3" value="elastic-search&lt;br&gt;&lt;br&gt;???dev" style="shape=cylinder3;whiteSpace=wrap;html=1;boundedLbl=1;backgroundOutline=1;size=15;" vertex="1" parent="1">
          <mxGeometry x="200" y="650" width="100" height="80" as="geometry" />
        </mxCell>
        <mxCell id="qIHvddNcrJCs_uBIurdM-4" value="elastic-search&lt;br&gt;&lt;br&gt;???prod" style="shape=cylinder3;whiteSpace=wrap;html=1;boundedLbl=1;backgroundOutline=1;size=15;" vertex="1" parent="1">
          <mxGeometry x="670" y="650" width="100" height="80" as="geometry" />
        </mxCell>
        <mxCell id="qIHvddNcrJCs_uBIurdM-5" value="" style="rounded=0;whiteSpace=wrap;html=1;" vertex="1" parent="1">
          <mxGeometry x="-210" y="170" width="240" height="430" as="geometry" />
        </mxCell>
        <mxCell id="qIHvddNcrJCs_uBIurdM-6" value="" style="rounded=0;whiteSpace=wrap;html=1;" vertex="1" parent="1">
          <mxGeometry x="90" y="170" width="240" height="430" as="geometry" />
        </mxCell>
        <mxCell id="qIHvddNcrJCs_uBIurdM-7" value="DEV" style="text;html=1;strokeColor=none;fillColor=none;align=center;verticalAlign=middle;whiteSpace=wrap;rounded=0;" vertex="1" parent="1">
          <mxGeometry x="-120" y="180" width="60" height="30" as="geometry" />
        </mxCell>
        <mxCell id="qIHvddNcrJCs_uBIurdM-8" value="TEST" style="text;html=1;strokeColor=none;fillColor=none;align=center;verticalAlign=middle;whiteSpace=wrap;rounded=0;" vertex="1" parent="1">
          <mxGeometry x="180" y="180" width="60" height="30" as="geometry" />
        </mxCell>
        <mxCell id="qIHvddNcrJCs_uBIurdM-9" value="" style="rounded=0;whiteSpace=wrap;html=1;" vertex="1" parent="1">
          <mxGeometry x="390" y="170" width="240" height="430" as="geometry" />
        </mxCell>
        <mxCell id="qIHvddNcrJCs_uBIurdM-10" value="UAT" style="text;html=1;strokeColor=none;fillColor=none;align=center;verticalAlign=middle;whiteSpace=wrap;rounded=0;" vertex="1" parent="1">
          <mxGeometry x="480" y="180" width="60" height="30" as="geometry" />
        </mxCell>
        <mxCell id="qIHvddNcrJCs_uBIurdM-11" value="" style="rounded=0;whiteSpace=wrap;html=1;" vertex="1" parent="1">
          <mxGeometry x="690" y="170" width="240" height="430" as="geometry" />
        </mxCell>
        <mxCell id="qIHvddNcrJCs_uBIurdM-12" value="PROD" style="text;html=1;strokeColor=none;fillColor=none;align=center;verticalAlign=middle;whiteSpace=wrap;rounded=0;" vertex="1" parent="1">
          <mxGeometry x="780" y="180" width="60" height="30" as="geometry" />
        </mxCell>
      </root>
    </mxGraphModel>
  </diagram>
</mxfile>
